<mxfile host="app.diagrams.net" modified="2023-10-27T18:01:40.489Z" agent="Mozilla/5.0 (Windows NT 10.0; Win64; x64) AppleWebKit/537.36 (KHTML, like Gecko) Chrome/118.0.0.0 Safari/537.36" etag="8XlSVELbXJlnIWf74BJA" version="22.0.8" type="device">
  <diagram name="Page-1" id="CfPF5TgARPAqfoZm1rrw">
    <mxGraphModel dx="1502" dy="534" grid="1" gridSize="12" guides="1" tooltips="1" connect="1" arrows="1" fold="1" page="1" pageScale="1" pageWidth="850" pageHeight="1100" math="0" shadow="0">
      <root>
        <mxCell id="0" />
        <mxCell id="1" parent="0" />
        <mxCell id="TonMWnoZ8v_wCybf2Ne4-1" value="&lt;font style=&quot;font-size: 24px;&quot;&gt;Pila&lt;/font&gt;" style="swimlane;fontStyle=0;childLayout=stackLayout;horizontal=1;startSize=26;fillColor=none;horizontalStack=0;resizeParent=1;resizeParentMax=0;resizeLast=0;collapsible=1;marginBottom=0;html=1;" parent="1" vertex="1">
          <mxGeometry x="100" y="235" width="360" height="220" as="geometry" />
        </mxCell>
        <mxCell id="TonMWnoZ8v_wCybf2Ne4-2" value="Atributo cima&amp;nbsp;" style="text;strokeColor=none;fillColor=none;align=left;verticalAlign=top;spacingLeft=4;spacingRight=4;overflow=hidden;rotatable=0;points=[[0,0.5],[1,0.5]];portConstraint=eastwest;whiteSpace=wrap;html=1;" parent="TonMWnoZ8v_wCybf2Ne4-1" vertex="1">
          <mxGeometry y="26" width="360" height="26" as="geometry" />
        </mxCell>
        <mxCell id="TonMWnoZ8v_wCybf2Ne4-3" value="Encapsuladores de cima" style="text;strokeColor=none;fillColor=none;align=left;verticalAlign=top;spacingLeft=4;spacingRight=4;overflow=hidden;rotatable=0;points=[[0,0.5],[1,0.5]];portConstraint=eastwest;whiteSpace=wrap;html=1;" parent="TonMWnoZ8v_wCybf2Ne4-1" vertex="1">
          <mxGeometry y="52" width="360" height="28" as="geometry" />
        </mxCell>
        <mxCell id="TonMWnoZ8v_wCybf2Ne4-22" value="Constructor Pila asignado a 0.&amp;nbsp;" style="text;strokeColor=none;fillColor=none;align=left;verticalAlign=top;spacingLeft=4;spacingRight=4;overflow=hidden;rotatable=0;points=[[0,0.5],[1,0.5]];portConstraint=eastwest;whiteSpace=wrap;html=1;" parent="TonMWnoZ8v_wCybf2Ne4-1" vertex="1">
          <mxGeometry y="80" width="360" height="28" as="geometry" />
        </mxCell>
        <mxCell id="TonMWnoZ8v_wCybf2Ne4-23" value="Metodo esVacia()" style="text;strokeColor=none;fillColor=none;align=left;verticalAlign=top;spacingLeft=4;spacingRight=4;overflow=hidden;rotatable=0;points=[[0,0.5],[1,0.5]];portConstraint=eastwest;whiteSpace=wrap;html=1;" parent="TonMWnoZ8v_wCybf2Ne4-1" vertex="1">
          <mxGeometry y="108" width="360" height="28" as="geometry" />
        </mxCell>
        <mxCell id="TonMWnoZ8v_wCybf2Ne4-24" value="Metodo Apilar ()" style="text;strokeColor=none;fillColor=none;align=left;verticalAlign=top;spacingLeft=4;spacingRight=4;overflow=hidden;rotatable=0;points=[[0,0.5],[1,0.5]];portConstraint=eastwest;whiteSpace=wrap;html=1;" parent="TonMWnoZ8v_wCybf2Ne4-1" vertex="1">
          <mxGeometry y="136" width="360" height="28" as="geometry" />
        </mxCell>
        <mxCell id="TonMWnoZ8v_wCybf2Ne4-25" value="Metodo Desapilar" style="text;strokeColor=none;fillColor=none;align=left;verticalAlign=top;spacingLeft=4;spacingRight=4;overflow=hidden;rotatable=0;points=[[0,0.5],[1,0.5]];portConstraint=eastwest;whiteSpace=wrap;html=1;" parent="TonMWnoZ8v_wCybf2Ne4-1" vertex="1">
          <mxGeometry y="164" width="360" height="28" as="geometry" />
        </mxCell>
        <mxCell id="TonMWnoZ8v_wCybf2Ne4-26" value="Metodo Imprimir Pila" style="text;strokeColor=none;fillColor=none;align=left;verticalAlign=top;spacingLeft=4;spacingRight=4;overflow=hidden;rotatable=0;points=[[0,0.5],[1,0.5]];portConstraint=eastwest;whiteSpace=wrap;html=1;" parent="TonMWnoZ8v_wCybf2Ne4-1" vertex="1">
          <mxGeometry y="192" width="360" height="28" as="geometry" />
        </mxCell>
        <mxCell id="TonMWnoZ8v_wCybf2Ne4-7" value="&lt;font style=&quot;font-size: 24px;&quot;&gt;&lt;br&gt;&lt;/font&gt;" style="text;strokeColor=none;fillColor=none;align=left;verticalAlign=top;spacingLeft=4;spacingRight=4;overflow=hidden;rotatable=0;points=[[0,0.5],[1,0.5]];portConstraint=eastwest;whiteSpace=wrap;html=1;" parent="1" vertex="1">
          <mxGeometry x="1110" y="1220" width="300" height="162" as="geometry" />
        </mxCell>
        <mxCell id="TonMWnoZ8v_wCybf2Ne4-27" value="&lt;span style=&quot;font-size: 24px;&quot;&gt;NodoPila&lt;/span&gt;" style="swimlane;fontStyle=0;childLayout=stackLayout;horizontal=1;startSize=26;fillColor=none;horizontalStack=0;resizeParent=1;resizeParentMax=0;resizeLast=0;collapsible=1;marginBottom=0;html=1;" parent="1" vertex="1">
          <mxGeometry x="540" y="250" width="360" height="190" as="geometry" />
        </mxCell>
        <mxCell id="TonMWnoZ8v_wCybf2Ne4-28" value="Atributo Dato elemento" style="text;strokeColor=none;fillColor=none;align=left;verticalAlign=top;spacingLeft=4;spacingRight=4;overflow=hidden;rotatable=0;points=[[0,0.5],[1,0.5]];portConstraint=eastwest;whiteSpace=wrap;html=1;" parent="TonMWnoZ8v_wCybf2Ne4-27" vertex="1">
          <mxGeometry y="26" width="360" height="26" as="geometry" />
        </mxCell>
        <mxCell id="TonMWnoZ8v_wCybf2Ne4-29" value="Atributo Nodo siguiente" style="text;strokeColor=none;fillColor=none;align=left;verticalAlign=top;spacingLeft=4;spacingRight=4;overflow=hidden;rotatable=0;points=[[0,0.5],[1,0.5]];portConstraint=eastwest;whiteSpace=wrap;html=1;" parent="TonMWnoZ8v_wCybf2Ne4-27" vertex="1">
          <mxGeometry y="52" width="360" height="28" as="geometry" />
        </mxCell>
        <mxCell id="TonMWnoZ8v_wCybf2Ne4-30" value="Constructor NodoPila nulo&amp;nbsp;" style="text;strokeColor=none;fillColor=none;align=left;verticalAlign=top;spacingLeft=4;spacingRight=4;overflow=hidden;rotatable=0;points=[[0,0.5],[1,0.5]];portConstraint=eastwest;whiteSpace=wrap;html=1;" parent="TonMWnoZ8v_wCybf2Ne4-27" vertex="1">
          <mxGeometry y="80" width="360" height="28" as="geometry" />
        </mxCell>
        <mxCell id="TonMWnoZ8v_wCybf2Ne4-31" value="Encapsuladores de elemento&amp;nbsp;" style="text;strokeColor=none;fillColor=none;align=left;verticalAlign=top;spacingLeft=4;spacingRight=4;overflow=hidden;rotatable=0;points=[[0,0.5],[1,0.5]];portConstraint=eastwest;whiteSpace=wrap;html=1;" parent="TonMWnoZ8v_wCybf2Ne4-27" vertex="1">
          <mxGeometry y="108" width="360" height="28" as="geometry" />
        </mxCell>
        <mxCell id="TonMWnoZ8v_wCybf2Ne4-35" value="Encapsuladores de siguiente&amp;nbsp;" style="text;strokeColor=none;fillColor=none;align=left;verticalAlign=top;spacingLeft=4;spacingRight=4;overflow=hidden;rotatable=0;points=[[0,0.5],[1,0.5]];portConstraint=eastwest;whiteSpace=wrap;html=1;" parent="TonMWnoZ8v_wCybf2Ne4-27" vertex="1">
          <mxGeometry y="136" width="360" height="28" as="geometry" />
        </mxCell>
        <mxCell id="TonMWnoZ8v_wCybf2Ne4-36" value="Atributo Dato elemento" style="text;strokeColor=none;fillColor=none;align=left;verticalAlign=top;spacingLeft=4;spacingRight=4;overflow=hidden;rotatable=0;points=[[0,0.5],[1,0.5]];portConstraint=eastwest;whiteSpace=wrap;html=1;" parent="TonMWnoZ8v_wCybf2Ne4-27" vertex="1">
          <mxGeometry y="164" width="360" height="26" as="geometry" />
        </mxCell>
        <mxCell id="TonMWnoZ8v_wCybf2Ne4-37" value="&lt;span style=&quot;font-size: 24px;&quot;&gt;Pasajero&lt;/span&gt;" style="swimlane;fontStyle=0;childLayout=stackLayout;horizontal=1;startSize=26;fillColor=none;horizontalStack=0;resizeParent=1;resizeParentMax=0;resizeLast=0;collapsible=1;marginBottom=0;html=1;" parent="1" vertex="1">
          <mxGeometry x="948" y="36" width="360" height="444" as="geometry" />
        </mxCell>
        <mxCell id="TonMWnoZ8v_wCybf2Ne4-38" value="Atributo String nombre y apellidos&amp;nbsp;" style="text;strokeColor=none;fillColor=none;align=left;verticalAlign=top;spacingLeft=4;spacingRight=4;overflow=hidden;rotatable=0;points=[[0,0.5],[1,0.5]];portConstraint=eastwest;whiteSpace=wrap;html=1;" parent="TonMWnoZ8v_wCybf2Ne4-37" vertex="1">
          <mxGeometry y="26" width="360" height="26" as="geometry" />
        </mxCell>
        <mxCell id="TonMWnoZ8v_wCybf2Ne4-39" value="Atributo int Edad" style="text;strokeColor=none;fillColor=none;align=left;verticalAlign=top;spacingLeft=4;spacingRight=4;overflow=hidden;rotatable=0;points=[[0,0.5],[1,0.5]];portConstraint=eastwest;whiteSpace=wrap;html=1;" parent="TonMWnoZ8v_wCybf2Ne4-37" vertex="1">
          <mxGeometry y="52" width="360" height="28" as="geometry" />
        </mxCell>
        <mxCell id="TonMWnoZ8v_wCybf2Ne4-40" value="Atributo String origen&amp;nbsp; y destino&amp;nbsp;" style="text;strokeColor=none;fillColor=none;align=left;verticalAlign=top;spacingLeft=4;spacingRight=4;overflow=hidden;rotatable=0;points=[[0,0.5],[1,0.5]];portConstraint=eastwest;whiteSpace=wrap;html=1;" parent="TonMWnoZ8v_wCybf2Ne4-37" vertex="1">
          <mxGeometry y="80" width="360" height="28" as="geometry" />
        </mxCell>
        <mxCell id="4n3oNLVav8jxbAVVkfyJ-41" value="Atributo String discapacidad." style="text;strokeColor=none;fillColor=none;align=left;verticalAlign=top;spacingLeft=4;spacingRight=4;overflow=hidden;rotatable=0;points=[[0,0.5],[1,0.5]];portConstraint=eastwest;whiteSpace=wrap;html=1;" vertex="1" parent="TonMWnoZ8v_wCybf2Ne4-37">
          <mxGeometry y="108" width="360" height="28" as="geometry" />
        </mxCell>
        <mxCell id="4n3oNLVav8jxbAVVkfyJ-75" value="Atributo String EN_COLA" style="text;strokeColor=none;fillColor=none;align=left;verticalAlign=top;spacingLeft=4;spacingRight=4;overflow=hidden;rotatable=0;points=[[0,0.5],[1,0.5]];portConstraint=eastwest;whiteSpace=wrap;html=1;" vertex="1" parent="TonMWnoZ8v_wCybf2Ne4-37">
          <mxGeometry y="136" width="360" height="28" as="geometry" />
        </mxCell>
        <mxCell id="4n3oNLVav8jxbAVVkfyJ-77" value="Atributo String EN_CAMINO" style="text;strokeColor=none;fillColor=none;align=left;verticalAlign=top;spacingLeft=4;spacingRight=4;overflow=hidden;rotatable=0;points=[[0,0.5],[1,0.5]];portConstraint=eastwest;whiteSpace=wrap;html=1;" vertex="1" parent="TonMWnoZ8v_wCybf2Ne4-37">
          <mxGeometry y="164" width="360" height="28" as="geometry" />
        </mxCell>
        <mxCell id="4n3oNLVav8jxbAVVkfyJ-76" value="Atributo String COMPLETADO.&amp;nbsp;" style="text;strokeColor=none;fillColor=none;align=left;verticalAlign=top;spacingLeft=4;spacingRight=4;overflow=hidden;rotatable=0;points=[[0,0.5],[1,0.5]];portConstraint=eastwest;whiteSpace=wrap;html=1;" vertex="1" parent="TonMWnoZ8v_wCybf2Ne4-37">
          <mxGeometry y="192" width="360" height="28" as="geometry" />
        </mxCell>
        <mxCell id="TonMWnoZ8v_wCybf2Ne4-41" value="Constructor de los atributos.&amp;nbsp;" style="text;strokeColor=none;fillColor=none;align=left;verticalAlign=top;spacingLeft=4;spacingRight=4;overflow=hidden;rotatable=0;points=[[0,0.5],[1,0.5]];portConstraint=eastwest;whiteSpace=wrap;html=1;" parent="TonMWnoZ8v_wCybf2Ne4-37" vertex="1">
          <mxGeometry y="220" width="360" height="28" as="geometry" />
        </mxCell>
        <mxCell id="TonMWnoZ8v_wCybf2Ne4-42" value="Encapsuladores de nombre y apeliidos&amp;nbsp;&amp;nbsp;" style="text;strokeColor=none;fillColor=none;align=left;verticalAlign=top;spacingLeft=4;spacingRight=4;overflow=hidden;rotatable=0;points=[[0,0.5],[1,0.5]];portConstraint=eastwest;whiteSpace=wrap;html=1;" parent="TonMWnoZ8v_wCybf2Ne4-37" vertex="1">
          <mxGeometry y="248" width="360" height="28" as="geometry" />
        </mxCell>
        <mxCell id="TonMWnoZ8v_wCybf2Ne4-44" value="Encapsuladores de edad&amp;nbsp;&amp;nbsp;" style="text;strokeColor=none;fillColor=none;align=left;verticalAlign=top;spacingLeft=4;spacingRight=4;overflow=hidden;rotatable=0;points=[[0,0.5],[1,0.5]];portConstraint=eastwest;whiteSpace=wrap;html=1;" parent="TonMWnoZ8v_wCybf2Ne4-37" vertex="1">
          <mxGeometry y="276" width="360" height="28" as="geometry" />
        </mxCell>
        <mxCell id="TonMWnoZ8v_wCybf2Ne4-45" value="Encapsuladores de origen y destino.&amp;nbsp; &amp;nbsp;" style="text;strokeColor=none;fillColor=none;align=left;verticalAlign=top;spacingLeft=4;spacingRight=4;overflow=hidden;rotatable=0;points=[[0,0.5],[1,0.5]];portConstraint=eastwest;whiteSpace=wrap;html=1;" parent="TonMWnoZ8v_wCybf2Ne4-37" vertex="1">
          <mxGeometry y="304" width="360" height="28" as="geometry" />
        </mxCell>
        <mxCell id="4n3oNLVav8jxbAVVkfyJ-42" value="Encapsuladores de discapacidad.&amp;nbsp;" style="text;strokeColor=none;fillColor=none;align=left;verticalAlign=top;spacingLeft=4;spacingRight=4;overflow=hidden;rotatable=0;points=[[0,0.5],[1,0.5]];portConstraint=eastwest;whiteSpace=wrap;html=1;" vertex="1" parent="TonMWnoZ8v_wCybf2Ne4-37">
          <mxGeometry y="332" width="360" height="28" as="geometry" />
        </mxCell>
        <mxCell id="4n3oNLVav8jxbAVVkfyJ-78" value="Encapsuladores de EN_COLA" style="text;strokeColor=none;fillColor=none;align=left;verticalAlign=top;spacingLeft=4;spacingRight=4;overflow=hidden;rotatable=0;points=[[0,0.5],[1,0.5]];portConstraint=eastwest;whiteSpace=wrap;html=1;" vertex="1" parent="TonMWnoZ8v_wCybf2Ne4-37">
          <mxGeometry y="360" width="360" height="28" as="geometry" />
        </mxCell>
        <mxCell id="4n3oNLVav8jxbAVVkfyJ-79" value="Encapsuladores de EN_CAMINO" style="text;strokeColor=none;fillColor=none;align=left;verticalAlign=top;spacingLeft=4;spacingRight=4;overflow=hidden;rotatable=0;points=[[0,0.5],[1,0.5]];portConstraint=eastwest;whiteSpace=wrap;html=1;" vertex="1" parent="TonMWnoZ8v_wCybf2Ne4-37">
          <mxGeometry y="388" width="360" height="28" as="geometry" />
        </mxCell>
        <mxCell id="4n3oNLVav8jxbAVVkfyJ-80" value="Encapsuladores de COMPLETADO.&amp;nbsp;" style="text;strokeColor=none;fillColor=none;align=left;verticalAlign=top;spacingLeft=4;spacingRight=4;overflow=hidden;rotatable=0;points=[[0,0.5],[1,0.5]];portConstraint=eastwest;whiteSpace=wrap;html=1;" vertex="1" parent="TonMWnoZ8v_wCybf2Ne4-37">
          <mxGeometry y="416" width="360" height="28" as="geometry" />
        </mxCell>
        <mxCell id="TonMWnoZ8v_wCybf2Ne4-46" value="&lt;span style=&quot;font-size: 24px;&quot;&gt;Cola&lt;/span&gt;" style="swimlane;fontStyle=0;childLayout=stackLayout;horizontal=1;startSize=26;fillColor=none;horizontalStack=0;resizeParent=1;resizeParentMax=0;resizeLast=0;collapsible=1;marginBottom=0;html=1;" parent="1" vertex="1">
          <mxGeometry x="110" y="510" width="360" height="220" as="geometry" />
        </mxCell>
        <mxCell id="TonMWnoZ8v_wCybf2Ne4-47" value="Atributo Nodo Frente&amp;nbsp;" style="text;strokeColor=none;fillColor=none;align=left;verticalAlign=top;spacingLeft=4;spacingRight=4;overflow=hidden;rotatable=0;points=[[0,0.5],[1,0.5]];portConstraint=eastwest;whiteSpace=wrap;html=1;" parent="TonMWnoZ8v_wCybf2Ne4-46" vertex="1">
          <mxGeometry y="26" width="360" height="26" as="geometry" />
        </mxCell>
        <mxCell id="TonMWnoZ8v_wCybf2Ne4-48" value="Atributo Nodo ultimo" style="text;strokeColor=none;fillColor=none;align=left;verticalAlign=top;spacingLeft=4;spacingRight=4;overflow=hidden;rotatable=0;points=[[0,0.5],[1,0.5]];portConstraint=eastwest;whiteSpace=wrap;html=1;" parent="TonMWnoZ8v_wCybf2Ne4-46" vertex="1">
          <mxGeometry y="52" width="360" height="28" as="geometry" />
        </mxCell>
        <mxCell id="TonMWnoZ8v_wCybf2Ne4-49" value="Encapsualdores de frente.&amp;nbsp;" style="text;strokeColor=none;fillColor=none;align=left;verticalAlign=top;spacingLeft=4;spacingRight=4;overflow=hidden;rotatable=0;points=[[0,0.5],[1,0.5]];portConstraint=eastwest;whiteSpace=wrap;html=1;" parent="TonMWnoZ8v_wCybf2Ne4-46" vertex="1">
          <mxGeometry y="80" width="360" height="28" as="geometry" />
        </mxCell>
        <mxCell id="TonMWnoZ8v_wCybf2Ne4-50" value="Encapsuladores de ultimo" style="text;strokeColor=none;fillColor=none;align=left;verticalAlign=top;spacingLeft=4;spacingRight=4;overflow=hidden;rotatable=0;points=[[0,0.5],[1,0.5]];portConstraint=eastwest;whiteSpace=wrap;html=1;" parent="TonMWnoZ8v_wCybf2Ne4-46" vertex="1">
          <mxGeometry y="108" width="360" height="28" as="geometry" />
        </mxCell>
        <mxCell id="TonMWnoZ8v_wCybf2Ne4-51" value="Metodo Encolar ()" style="text;strokeColor=none;fillColor=none;align=left;verticalAlign=top;spacingLeft=4;spacingRight=4;overflow=hidden;rotatable=0;points=[[0,0.5],[1,0.5]];portConstraint=eastwest;whiteSpace=wrap;html=1;" parent="TonMWnoZ8v_wCybf2Ne4-46" vertex="1">
          <mxGeometry y="136" width="360" height="28" as="geometry" />
        </mxCell>
        <mxCell id="TonMWnoZ8v_wCybf2Ne4-52" value="Metodo Atender ()" style="text;strokeColor=none;fillColor=none;align=left;verticalAlign=top;spacingLeft=4;spacingRight=4;overflow=hidden;rotatable=0;points=[[0,0.5],[1,0.5]];portConstraint=eastwest;whiteSpace=wrap;html=1;" parent="TonMWnoZ8v_wCybf2Ne4-46" vertex="1">
          <mxGeometry y="164" width="360" height="28" as="geometry" />
        </mxCell>
        <mxCell id="TonMWnoZ8v_wCybf2Ne4-53" value="Metodo Imprimir Cola ()" style="text;strokeColor=none;fillColor=none;align=left;verticalAlign=top;spacingLeft=4;spacingRight=4;overflow=hidden;rotatable=0;points=[[0,0.5],[1,0.5]];portConstraint=eastwest;whiteSpace=wrap;html=1;" parent="TonMWnoZ8v_wCybf2Ne4-46" vertex="1">
          <mxGeometry y="192" width="360" height="28" as="geometry" />
        </mxCell>
        <mxCell id="TonMWnoZ8v_wCybf2Ne4-54" value="&lt;span style=&quot;font-size: 24px;&quot;&gt;NodoCola&lt;/span&gt;" style="swimlane;fontStyle=0;childLayout=stackLayout;horizontal=1;startSize=26;fillColor=none;horizontalStack=0;resizeParent=1;resizeParentMax=0;resizeLast=0;collapsible=1;marginBottom=0;html=1;" parent="1" vertex="1">
          <mxGeometry x="528" y="510" width="360" height="192" as="geometry" />
        </mxCell>
        <mxCell id="TonMWnoZ8v_wCybf2Ne4-55" value="Atributo String Pasajero&amp;nbsp;" style="text;strokeColor=none;fillColor=none;align=left;verticalAlign=top;spacingLeft=4;spacingRight=4;overflow=hidden;rotatable=0;points=[[0,0.5],[1,0.5]];portConstraint=eastwest;whiteSpace=wrap;html=1;" parent="TonMWnoZ8v_wCybf2Ne4-54" vertex="1">
          <mxGeometry y="26" width="360" height="26" as="geometry" />
        </mxCell>
        <mxCell id="TonMWnoZ8v_wCybf2Ne4-56" value="Atributo Nodo atras" style="text;strokeColor=none;fillColor=none;align=left;verticalAlign=top;spacingLeft=4;spacingRight=4;overflow=hidden;rotatable=0;points=[[0,0.5],[1,0.5]];portConstraint=eastwest;whiteSpace=wrap;html=1;" parent="TonMWnoZ8v_wCybf2Ne4-54" vertex="1">
          <mxGeometry y="52" width="360" height="28" as="geometry" />
        </mxCell>
        <mxCell id="TonMWnoZ8v_wCybf2Ne4-57" value="Constructor de Nodo&amp;nbsp;" style="text;strokeColor=none;fillColor=none;align=left;verticalAlign=top;spacingLeft=4;spacingRight=4;overflow=hidden;rotatable=0;points=[[0,0.5],[1,0.5]];portConstraint=eastwest;whiteSpace=wrap;html=1;" parent="TonMWnoZ8v_wCybf2Ne4-54" vertex="1">
          <mxGeometry y="80" width="360" height="28" as="geometry" />
        </mxCell>
        <mxCell id="TonMWnoZ8v_wCybf2Ne4-58" value="Encapsuladores de dato" style="text;strokeColor=none;fillColor=none;align=left;verticalAlign=top;spacingLeft=4;spacingRight=4;overflow=hidden;rotatable=0;points=[[0,0.5],[1,0.5]];portConstraint=eastwest;whiteSpace=wrap;html=1;" parent="TonMWnoZ8v_wCybf2Ne4-54" vertex="1">
          <mxGeometry y="108" width="360" height="28" as="geometry" />
        </mxCell>
        <mxCell id="TonMWnoZ8v_wCybf2Ne4-59" value="Encapsuladores de atras" style="text;strokeColor=none;fillColor=none;align=left;verticalAlign=top;spacingLeft=4;spacingRight=4;overflow=hidden;rotatable=0;points=[[0,0.5],[1,0.5]];portConstraint=eastwest;whiteSpace=wrap;html=1;" parent="TonMWnoZ8v_wCybf2Ne4-54" vertex="1">
          <mxGeometry y="136" width="360" height="28" as="geometry" />
        </mxCell>
        <mxCell id="TonMWnoZ8v_wCybf2Ne4-60" value="Metodo ToString" style="text;strokeColor=none;fillColor=none;align=left;verticalAlign=top;spacingLeft=4;spacingRight=4;overflow=hidden;rotatable=0;points=[[0,0.5],[1,0.5]];portConstraint=eastwest;whiteSpace=wrap;html=1;" parent="TonMWnoZ8v_wCybf2Ne4-54" vertex="1">
          <mxGeometry y="164" width="360" height="28" as="geometry" />
        </mxCell>
        <mxCell id="TonMWnoZ8v_wCybf2Ne4-62" value="&lt;span style=&quot;font-size: 24px;&quot;&gt;Grafos o hilos&lt;/span&gt;" style="swimlane;fontStyle=0;childLayout=stackLayout;horizontal=1;startSize=26;fillColor=none;horizontalStack=0;resizeParent=1;resizeParentMax=0;resizeLast=0;collapsible=1;marginBottom=0;html=1;" parent="1" vertex="1">
          <mxGeometry x="84" y="1020" width="360" height="52" as="geometry">
            <mxRectangle x="84" y="1020" width="192" height="48" as="alternateBounds" />
          </mxGeometry>
        </mxCell>
        <mxCell id="TonMWnoZ8v_wCybf2Ne4-71" value="&lt;span style=&quot;font-size: 24px;&quot;&gt;Vagon&lt;/span&gt;" style="swimlane;fontStyle=0;childLayout=stackLayout;horizontal=1;startSize=26;fillColor=none;horizontalStack=0;resizeParent=1;resizeParentMax=0;resizeLast=0;collapsible=1;marginBottom=0;html=1;" parent="1" vertex="1">
          <mxGeometry x="504" y="1032" width="360" height="538" as="geometry">
            <mxRectangle x="504" y="1032" width="108" height="48" as="alternateBounds" />
          </mxGeometry>
        </mxCell>
        <mxCell id="TonMWnoZ8v_wCybf2Ne4-72" value="Metodo asientosDisponiblesNoDiscapacitados (Lista circular doble donde van las pilas recorriendo la lista buscando en la pila el asiento disponible de las personas no discapacitadas, mostrando la informacion de pasajeros en caso de que los asientos esten ocupados&amp;nbsp; )." style="text;strokeColor=none;fillColor=none;align=left;verticalAlign=top;spacingLeft=4;spacingRight=4;overflow=hidden;rotatable=0;points=[[0,0.5],[1,0.5]];portConstraint=eastwest;whiteSpace=wrap;html=1;" parent="TonMWnoZ8v_wCybf2Ne4-71" vertex="1">
          <mxGeometry y="26" width="360" height="82" as="geometry" />
        </mxCell>
        <mxCell id="4n3oNLVav8jxbAVVkfyJ-28" value="Metodo asientosDisponiblesDiscapacitados (Lista circular doble donde van las pilas recorriendo la lista buscando en la pila el asiento disponible de las personas discapacitadas, mostrando la informacion de pasajeros en caso de que los asientos esten ocupados.&amp;nbsp; )" style="text;strokeColor=none;fillColor=none;align=left;verticalAlign=top;spacingLeft=4;spacingRight=4;overflow=hidden;rotatable=0;points=[[0,0.5],[1,0.5]];portConstraint=eastwest;whiteSpace=wrap;html=1;" vertex="1" parent="TonMWnoZ8v_wCybf2Ne4-71">
          <mxGeometry y="108" width="360" height="84" as="geometry" />
        </mxCell>
        <mxCell id="4n3oNLVav8jxbAVVkfyJ-39" value="Metodo sacarPasajerosNoDiscapacitados (metodo donde se desapilara la pila 2 y 3 de cada asiento de vagones en una pila auxiliar y volver a apilar en la pila original, para poder sacar a los pasajeros no discapacitados que quieran salir y mostrar la informacion del mismo.)" style="text;strokeColor=none;fillColor=none;align=left;verticalAlign=top;spacingLeft=4;spacingRight=4;overflow=hidden;rotatable=0;points=[[0,0.5],[1,0.5]];portConstraint=eastwest;whiteSpace=wrap;html=1;" vertex="1" parent="TonMWnoZ8v_wCybf2Ne4-71">
          <mxGeometry y="192" width="360" height="86" as="geometry" />
        </mxCell>
        <mxCell id="4n3oNLVav8jxbAVVkfyJ-40" value="Metodo sacarPasajerosDiscapacitados (metodo donde se desapilara la pila 1 de cada asiento de vagones en una pila auxiliar y volver a apilar en la pila original, para poder sacar a los pasajeros discapacitados que quieran salir y mostrar la informacion del mismo.)" style="text;strokeColor=none;fillColor=none;align=left;verticalAlign=top;spacingLeft=4;spacingRight=4;overflow=hidden;rotatable=0;points=[[0,0.5],[1,0.5]];portConstraint=eastwest;whiteSpace=wrap;html=1;" vertex="1" parent="TonMWnoZ8v_wCybf2Ne4-71">
          <mxGeometry y="278" width="360" height="84" as="geometry" />
        </mxCell>
        <mxCell id="TonMWnoZ8v_wCybf2Ne4-77" value="Agregar pasajeros ( recorriendo la lista buscando en la pila el asiento disponible. )" style="text;strokeColor=none;fillColor=none;align=left;verticalAlign=top;spacingLeft=4;spacingRight=4;overflow=hidden;rotatable=0;points=[[0,0.5],[1,0.5]];portConstraint=eastwest;whiteSpace=wrap;html=1;" parent="TonMWnoZ8v_wCybf2Ne4-71" vertex="1">
          <mxGeometry y="362" width="360" height="36" as="geometry" />
        </mxCell>
        <mxCell id="TonMWnoZ8v_wCybf2Ne4-78" value="Metodo ImprimirPasajerosActuales ( metodo que imprime y lista todos los pasajeros actuales de los vagones del tren agarrando las pilas almacenadas de la informacion de la lista doble circular).&amp;nbsp;" style="text;strokeColor=none;fillColor=none;align=left;verticalAlign=top;spacingLeft=4;spacingRight=4;overflow=hidden;rotatable=0;points=[[0,0.5],[1,0.5]];portConstraint=eastwest;whiteSpace=wrap;html=1;" parent="TonMWnoZ8v_wCybf2Ne4-71" vertex="1">
          <mxGeometry y="398" width="360" height="70" as="geometry" />
        </mxCell>
        <mxCell id="4n3oNLVav8jxbAVVkfyJ-92" value="Metodo informacionVagon ( metodo que mostrara la informacion la estacion actual en donde se encuentra, pasajeros que dejaron y entraron el vagon ).&amp;nbsp;" style="text;strokeColor=none;fillColor=none;align=left;verticalAlign=top;spacingLeft=4;spacingRight=4;overflow=hidden;rotatable=0;points=[[0,0.5],[1,0.5]];portConstraint=eastwest;whiteSpace=wrap;html=1;" vertex="1" parent="TonMWnoZ8v_wCybf2Ne4-71">
          <mxGeometry y="468" width="360" height="70" as="geometry" />
        </mxCell>
        <mxCell id="4n3oNLVav8jxbAVVkfyJ-2" value="&lt;span style=&quot;font-size: 24px;&quot;&gt;Nodo Circulares dobles&lt;/span&gt;" style="swimlane;fontStyle=0;childLayout=stackLayout;horizontal=1;startSize=26;fillColor=none;horizontalStack=0;resizeParent=1;resizeParentMax=0;resizeLast=0;collapsible=1;marginBottom=0;html=1;" vertex="1" parent="1">
          <mxGeometry x="100" y="756" width="360" height="220" as="geometry" />
        </mxCell>
        <mxCell id="4n3oNLVav8jxbAVVkfyJ-3" value="Atributo PasajeroDoble dato" style="text;strokeColor=none;fillColor=none;align=left;verticalAlign=top;spacingLeft=4;spacingRight=4;overflow=hidden;rotatable=0;points=[[0,0.5],[1,0.5]];portConstraint=eastwest;whiteSpace=wrap;html=1;" vertex="1" parent="4n3oNLVav8jxbAVVkfyJ-2">
          <mxGeometry y="26" width="360" height="26" as="geometry" />
        </mxCell>
        <mxCell id="4n3oNLVav8jxbAVVkfyJ-4" value="Atributo NodosCircularesDobles anterior y siguiente.&amp;nbsp;" style="text;strokeColor=none;fillColor=none;align=left;verticalAlign=top;spacingLeft=4;spacingRight=4;overflow=hidden;rotatable=0;points=[[0,0.5],[1,0.5]];portConstraint=eastwest;whiteSpace=wrap;html=1;" vertex="1" parent="4n3oNLVav8jxbAVVkfyJ-2">
          <mxGeometry y="52" width="360" height="28" as="geometry" />
        </mxCell>
        <mxCell id="4n3oNLVav8jxbAVVkfyJ-5" value="Constructor del atributo dato.&amp;nbsp;" style="text;strokeColor=none;fillColor=none;align=left;verticalAlign=top;spacingLeft=4;spacingRight=4;overflow=hidden;rotatable=0;points=[[0,0.5],[1,0.5]];portConstraint=eastwest;whiteSpace=wrap;html=1;" vertex="1" parent="4n3oNLVav8jxbAVVkfyJ-2">
          <mxGeometry y="80" width="360" height="28" as="geometry" />
        </mxCell>
        <mxCell id="4n3oNLVav8jxbAVVkfyJ-6" value="Encapsuladores del atributo dato&amp;nbsp;" style="text;strokeColor=none;fillColor=none;align=left;verticalAlign=top;spacingLeft=4;spacingRight=4;overflow=hidden;rotatable=0;points=[[0,0.5],[1,0.5]];portConstraint=eastwest;whiteSpace=wrap;html=1;" vertex="1" parent="4n3oNLVav8jxbAVVkfyJ-2">
          <mxGeometry y="108" width="360" height="28" as="geometry" />
        </mxCell>
        <mxCell id="4n3oNLVav8jxbAVVkfyJ-7" value="Encapsuladores del atributo anterior&amp;nbsp;&amp;nbsp;" style="text;strokeColor=none;fillColor=none;align=left;verticalAlign=top;spacingLeft=4;spacingRight=4;overflow=hidden;rotatable=0;points=[[0,0.5],[1,0.5]];portConstraint=eastwest;whiteSpace=wrap;html=1;" vertex="1" parent="4n3oNLVav8jxbAVVkfyJ-2">
          <mxGeometry y="136" width="360" height="28" as="geometry" />
        </mxCell>
        <mxCell id="4n3oNLVav8jxbAVVkfyJ-11" value="Encapsuladores del atributo siguiente&amp;nbsp;" style="text;strokeColor=none;fillColor=none;align=left;verticalAlign=top;spacingLeft=4;spacingRight=4;overflow=hidden;rotatable=0;points=[[0,0.5],[1,0.5]];portConstraint=eastwest;whiteSpace=wrap;html=1;" vertex="1" parent="4n3oNLVav8jxbAVVkfyJ-2">
          <mxGeometry y="164" width="360" height="28" as="geometry" />
        </mxCell>
        <mxCell id="4n3oNLVav8jxbAVVkfyJ-8" value="Metodo ToString.&amp;nbsp;" style="text;strokeColor=none;fillColor=none;align=left;verticalAlign=top;spacingLeft=4;spacingRight=4;overflow=hidden;rotatable=0;points=[[0,0.5],[1,0.5]];portConstraint=eastwest;whiteSpace=wrap;html=1;" vertex="1" parent="4n3oNLVav8jxbAVVkfyJ-2">
          <mxGeometry y="192" width="360" height="28" as="geometry" />
        </mxCell>
        <mxCell id="4n3oNLVav8jxbAVVkfyJ-12" value="&lt;span style=&quot;font-size: 24px;&quot;&gt;Pasajero Doble&lt;/span&gt;" style="swimlane;fontStyle=0;childLayout=stackLayout;horizontal=1;startSize=26;fillColor=none;horizontalStack=0;resizeParent=1;resizeParentMax=0;resizeLast=0;collapsible=1;marginBottom=0;html=1;" vertex="1" parent="1">
          <mxGeometry x="504" y="756" width="360" height="220" as="geometry" />
        </mxCell>
        <mxCell id="4n3oNLVav8jxbAVVkfyJ-13" value="Atributo String nombre.&amp;nbsp;" style="text;strokeColor=none;fillColor=none;align=left;verticalAlign=top;spacingLeft=4;spacingRight=4;overflow=hidden;rotatable=0;points=[[0,0.5],[1,0.5]];portConstraint=eastwest;whiteSpace=wrap;html=1;" vertex="1" parent="4n3oNLVav8jxbAVVkfyJ-12">
          <mxGeometry y="26" width="360" height="26" as="geometry" />
        </mxCell>
        <mxCell id="4n3oNLVav8jxbAVVkfyJ-14" value="Atributo int id.&amp;nbsp;" style="text;strokeColor=none;fillColor=none;align=left;verticalAlign=top;spacingLeft=4;spacingRight=4;overflow=hidden;rotatable=0;points=[[0,0.5],[1,0.5]];portConstraint=eastwest;whiteSpace=wrap;html=1;" vertex="1" parent="4n3oNLVav8jxbAVVkfyJ-12">
          <mxGeometry y="52" width="360" height="28" as="geometry" />
        </mxCell>
        <mxCell id="4n3oNLVav8jxbAVVkfyJ-15" value="Constructor vacio&amp;nbsp;" style="text;strokeColor=none;fillColor=none;align=left;verticalAlign=top;spacingLeft=4;spacingRight=4;overflow=hidden;rotatable=0;points=[[0,0.5],[1,0.5]];portConstraint=eastwest;whiteSpace=wrap;html=1;" vertex="1" parent="4n3oNLVav8jxbAVVkfyJ-12">
          <mxGeometry y="80" width="360" height="28" as="geometry" />
        </mxCell>
        <mxCell id="4n3oNLVav8jxbAVVkfyJ-16" value="Constructor de atributos id y nombre.&amp;nbsp;" style="text;strokeColor=none;fillColor=none;align=left;verticalAlign=top;spacingLeft=4;spacingRight=4;overflow=hidden;rotatable=0;points=[[0,0.5],[1,0.5]];portConstraint=eastwest;whiteSpace=wrap;html=1;" vertex="1" parent="4n3oNLVav8jxbAVVkfyJ-12">
          <mxGeometry y="108" width="360" height="28" as="geometry" />
        </mxCell>
        <mxCell id="4n3oNLVav8jxbAVVkfyJ-17" value="Encapsuladores del atributo nombre.&amp;nbsp;&amp;nbsp;" style="text;strokeColor=none;fillColor=none;align=left;verticalAlign=top;spacingLeft=4;spacingRight=4;overflow=hidden;rotatable=0;points=[[0,0.5],[1,0.5]];portConstraint=eastwest;whiteSpace=wrap;html=1;" vertex="1" parent="4n3oNLVav8jxbAVVkfyJ-12">
          <mxGeometry y="136" width="360" height="28" as="geometry" />
        </mxCell>
        <mxCell id="4n3oNLVav8jxbAVVkfyJ-18" value="Encapsuladores del atributo ID.&amp;nbsp;" style="text;strokeColor=none;fillColor=none;align=left;verticalAlign=top;spacingLeft=4;spacingRight=4;overflow=hidden;rotatable=0;points=[[0,0.5],[1,0.5]];portConstraint=eastwest;whiteSpace=wrap;html=1;" vertex="1" parent="4n3oNLVav8jxbAVVkfyJ-12">
          <mxGeometry y="164" width="360" height="28" as="geometry" />
        </mxCell>
        <mxCell id="4n3oNLVav8jxbAVVkfyJ-19" value="Metodo ToString.&amp;nbsp;" style="text;strokeColor=none;fillColor=none;align=left;verticalAlign=top;spacingLeft=4;spacingRight=4;overflow=hidden;rotatable=0;points=[[0,0.5],[1,0.5]];portConstraint=eastwest;whiteSpace=wrap;html=1;" vertex="1" parent="4n3oNLVav8jxbAVVkfyJ-12">
          <mxGeometry y="192" width="360" height="28" as="geometry" />
        </mxCell>
        <mxCell id="4n3oNLVav8jxbAVVkfyJ-20" value="&lt;span style=&quot;font-size: 24px;&quot;&gt;Listas Dobles Circulares&lt;/span&gt;" style="swimlane;fontStyle=0;childLayout=stackLayout;horizontal=1;startSize=26;fillColor=none;horizontalStack=0;resizeParent=1;resizeParentMax=0;resizeLast=0;collapsible=1;marginBottom=0;html=1;" vertex="1" parent="1">
          <mxGeometry x="915" y="756" width="360" height="136" as="geometry" />
        </mxCell>
        <mxCell id="4n3oNLVav8jxbAVVkfyJ-21" value="Atributo NodosCircularesDobles cabeza.&amp;nbsp;" style="text;strokeColor=none;fillColor=none;align=left;verticalAlign=top;spacingLeft=4;spacingRight=4;overflow=hidden;rotatable=0;points=[[0,0.5],[1,0.5]];portConstraint=eastwest;whiteSpace=wrap;html=1;" vertex="1" parent="4n3oNLVav8jxbAVVkfyJ-20">
          <mxGeometry y="26" width="360" height="26" as="geometry" />
        </mxCell>
        <mxCell id="4n3oNLVav8jxbAVVkfyJ-22" value="Atributo NodosCircularesDobles ultimo.&amp;nbsp;" style="text;strokeColor=none;fillColor=none;align=left;verticalAlign=top;spacingLeft=4;spacingRight=4;overflow=hidden;rotatable=0;points=[[0,0.5],[1,0.5]];portConstraint=eastwest;whiteSpace=wrap;html=1;" vertex="1" parent="4n3oNLVav8jxbAVVkfyJ-20">
          <mxGeometry y="52" width="360" height="28" as="geometry" />
        </mxCell>
        <mxCell id="4n3oNLVav8jxbAVVkfyJ-23" value="Metodo no estatico inserta.&amp;nbsp;" style="text;strokeColor=none;fillColor=none;align=left;verticalAlign=top;spacingLeft=4;spacingRight=4;overflow=hidden;rotatable=0;points=[[0,0.5],[1,0.5]];portConstraint=eastwest;whiteSpace=wrap;html=1;" vertex="1" parent="4n3oNLVav8jxbAVVkfyJ-20">
          <mxGeometry y="80" width="360" height="28" as="geometry" />
        </mxCell>
        <mxCell id="4n3oNLVav8jxbAVVkfyJ-24" value="Metodo toString.&amp;nbsp;" style="text;strokeColor=none;fillColor=none;align=left;verticalAlign=top;spacingLeft=4;spacingRight=4;overflow=hidden;rotatable=0;points=[[0,0.5],[1,0.5]];portConstraint=eastwest;whiteSpace=wrap;html=1;" vertex="1" parent="4n3oNLVav8jxbAVVkfyJ-20">
          <mxGeometry y="108" width="360" height="28" as="geometry" />
        </mxCell>
        <mxCell id="4n3oNLVav8jxbAVVkfyJ-29" value="&lt;span style=&quot;font-size: 24px;&quot;&gt;FilaVagon&lt;/span&gt;" style="swimlane;fontStyle=0;childLayout=stackLayout;horizontal=1;startSize=26;fillColor=none;horizontalStack=0;resizeParent=1;resizeParentMax=0;resizeLast=0;collapsible=1;marginBottom=0;html=1;" vertex="1" parent="1">
          <mxGeometry x="1860" y="1100" width="360" height="270" as="geometry" />
        </mxCell>
        <mxCell id="4n3oNLVav8jxbAVVkfyJ-30" value="Metodo alojoPasajerosDiscapacidad ( Cola donde los pasajeros despues de que salgan los pasajeros del tren,&amp;nbsp; en caso de ser discapacitados ingresaran primero al tren y en caso de no ser discapacitados ingresaran despues al tren. )" style="text;strokeColor=none;fillColor=none;align=left;verticalAlign=top;spacingLeft=4;spacingRight=4;overflow=hidden;rotatable=0;points=[[0,0.5],[1,0.5]];portConstraint=eastwest;whiteSpace=wrap;html=1;" vertex="1" parent="4n3oNLVav8jxbAVVkfyJ-29">
          <mxGeometry y="26" width="360" height="70" as="geometry" />
        </mxCell>
        <mxCell id="4n3oNLVav8jxbAVVkfyJ-36" value="Metodo desalojoPasajerosDiscapacidad( Cola donde los pasajeros en caso de ser discapacitados salen de primero del tren y de segundo salen las personas no discapacitadas. )&amp;nbsp;" style="text;strokeColor=none;fillColor=none;align=left;verticalAlign=top;spacingLeft=4;spacingRight=4;overflow=hidden;rotatable=0;points=[[0,0.5],[1,0.5]];portConstraint=eastwest;whiteSpace=wrap;html=1;" vertex="1" parent="4n3oNLVav8jxbAVVkfyJ-29">
          <mxGeometry y="96" width="360" height="58" as="geometry" />
        </mxCell>
        <mxCell id="4n3oNLVav8jxbAVVkfyJ-37" value="Metodo esperaDiscapacitados ( cola donde los pasajeros discapacitados esperaran la fila del tren en caso de que este lleno el vagon ).&amp;nbsp;&amp;nbsp;" style="text;strokeColor=none;fillColor=none;align=left;verticalAlign=top;spacingLeft=4;spacingRight=4;overflow=hidden;rotatable=0;points=[[0,0.5],[1,0.5]];portConstraint=eastwest;whiteSpace=wrap;html=1;" vertex="1" parent="4n3oNLVav8jxbAVVkfyJ-29">
          <mxGeometry y="154" width="360" height="58" as="geometry" />
        </mxCell>
        <mxCell id="4n3oNLVav8jxbAVVkfyJ-38" value="Metodo esperaNoDiscapacitados ( Cola donde los pasajeros no discapacitados esperaran despues de las personas discapacitadas en caso de que el vagon este lleno ).&amp;nbsp;" style="text;strokeColor=none;fillColor=none;align=left;verticalAlign=top;spacingLeft=4;spacingRight=4;overflow=hidden;rotatable=0;points=[[0,0.5],[1,0.5]];portConstraint=eastwest;whiteSpace=wrap;html=1;" vertex="1" parent="4n3oNLVav8jxbAVVkfyJ-29">
          <mxGeometry y="212" width="360" height="58" as="geometry" />
        </mxCell>
        <mxCell id="4n3oNLVav8jxbAVVkfyJ-43" value="&lt;span style=&quot;font-size: 24px;&quot;&gt;FilaVagon&lt;/span&gt;" style="swimlane;fontStyle=0;childLayout=stackLayout;horizontal=1;startSize=26;fillColor=none;horizontalStack=0;resizeParent=1;resizeParentMax=0;resizeLast=0;collapsible=1;marginBottom=0;html=1;" vertex="1" parent="1">
          <mxGeometry x="900" y="1032" width="360" height="374" as="geometry" />
        </mxCell>
        <mxCell id="4n3oNLVav8jxbAVVkfyJ-44" value="Metodo alojoPasajerosDiscapacitados ( Cola donde los pasajeros discapacitado ingresen primero al tren )" style="text;strokeColor=none;fillColor=none;align=left;verticalAlign=top;spacingLeft=4;spacingRight=4;overflow=hidden;rotatable=0;points=[[0,0.5],[1,0.5]];portConstraint=eastwest;whiteSpace=wrap;html=1;" vertex="1" parent="4n3oNLVav8jxbAVVkfyJ-43">
          <mxGeometry y="26" width="360" height="58" as="geometry" />
        </mxCell>
        <mxCell id="4n3oNLVav8jxbAVVkfyJ-45" value="Metodo alojoPasajerosNoDiscapacitados ( Cola donde los pasajeros no discapacitados ingresen al tren despues de los discapacitados. )" style="text;strokeColor=none;fillColor=none;align=left;verticalAlign=top;spacingLeft=4;spacingRight=4;overflow=hidden;rotatable=0;points=[[0,0.5],[1,0.5]];portConstraint=eastwest;whiteSpace=wrap;html=1;" vertex="1" parent="4n3oNLVav8jxbAVVkfyJ-43">
          <mxGeometry y="84" width="360" height="58" as="geometry" />
        </mxCell>
        <mxCell id="4n3oNLVav8jxbAVVkfyJ-46" value="Metodo desalojoPasajerosDiscapacitados ( Cola donde los pasajeros discapacitados salen despues del ingreso de pasajeros del tren )&amp;nbsp;" style="text;strokeColor=none;fillColor=none;align=left;verticalAlign=top;spacingLeft=4;spacingRight=4;overflow=hidden;rotatable=0;points=[[0,0.5],[1,0.5]];portConstraint=eastwest;whiteSpace=wrap;html=1;" vertex="1" parent="4n3oNLVav8jxbAVVkfyJ-43">
          <mxGeometry y="142" width="360" height="58" as="geometry" />
        </mxCell>
        <mxCell id="4n3oNLVav8jxbAVVkfyJ-47" value="Metodo desalojoPasajerosNoDiscapacitados ( Cola donde los pasajeros no discapacitados salen despues del ingreso de pasajeros del tren y los discapacitados que salgan. )&amp;nbsp;" style="text;strokeColor=none;fillColor=none;align=left;verticalAlign=top;spacingLeft=4;spacingRight=4;overflow=hidden;rotatable=0;points=[[0,0.5],[1,0.5]];portConstraint=eastwest;whiteSpace=wrap;html=1;" vertex="1" parent="4n3oNLVav8jxbAVVkfyJ-43">
          <mxGeometry y="200" width="360" height="58" as="geometry" />
        </mxCell>
        <mxCell id="4n3oNLVav8jxbAVVkfyJ-48" value="Metodo esperaDiscapacitados ( cola donde los pasajeros discapacitados esperaran la fila del tren en caso de que este lleno el vagon ).&amp;nbsp;&amp;nbsp;" style="text;strokeColor=none;fillColor=none;align=left;verticalAlign=top;spacingLeft=4;spacingRight=4;overflow=hidden;rotatable=0;points=[[0,0.5],[1,0.5]];portConstraint=eastwest;whiteSpace=wrap;html=1;" vertex="1" parent="4n3oNLVav8jxbAVVkfyJ-43">
          <mxGeometry y="258" width="360" height="58" as="geometry" />
        </mxCell>
        <mxCell id="4n3oNLVav8jxbAVVkfyJ-49" value="Metodo esperaNoDiscapacitados ( Cola donde los pasajeros no discapacitados esperaran despues de las personas discapacitadas en caso de que el vagon este lleno ).&amp;nbsp;" style="text;strokeColor=none;fillColor=none;align=left;verticalAlign=top;spacingLeft=4;spacingRight=4;overflow=hidden;rotatable=0;points=[[0,0.5],[1,0.5]];portConstraint=eastwest;whiteSpace=wrap;html=1;" vertex="1" parent="4n3oNLVav8jxbAVVkfyJ-43">
          <mxGeometry y="316" width="360" height="58" as="geometry" />
        </mxCell>
        <mxCell id="4n3oNLVav8jxbAVVkfyJ-52" value="&lt;span style=&quot;font-size: 24px;&quot;&gt;Administracion&lt;/span&gt;" style="swimlane;fontStyle=0;childLayout=stackLayout;horizontal=1;startSize=26;fillColor=none;horizontalStack=0;resizeParent=1;resizeParentMax=0;resizeLast=0;collapsible=1;marginBottom=0;html=1;" vertex="1" parent="1">
          <mxGeometry x="84" y="1092" width="360" height="298" as="geometry" />
        </mxCell>
        <mxCell id="4n3oNLVav8jxbAVVkfyJ-53" value="Metodo FilasDiscapacitados.&amp;nbsp;" style="text;strokeColor=none;fillColor=none;align=left;verticalAlign=top;spacingLeft=4;spacingRight=4;overflow=hidden;rotatable=0;points=[[0,0.5],[1,0.5]];portConstraint=eastwest;whiteSpace=wrap;html=1;" vertex="1" parent="4n3oNLVav8jxbAVVkfyJ-52">
          <mxGeometry y="26" width="360" height="34" as="geometry" />
        </mxCell>
        <mxCell id="4n3oNLVav8jxbAVVkfyJ-57" value="Metodo FilasNoDiscapacitados.&amp;nbsp;" style="text;strokeColor=none;fillColor=none;align=left;verticalAlign=top;spacingLeft=4;spacingRight=4;overflow=hidden;rotatable=0;points=[[0,0.5],[1,0.5]];portConstraint=eastwest;whiteSpace=wrap;html=1;" vertex="1" parent="4n3oNLVav8jxbAVVkfyJ-52">
          <mxGeometry y="60" width="360" height="34" as="geometry" />
        </mxCell>
        <mxCell id="4n3oNLVav8jxbAVVkfyJ-58" value="Metodo NumeroAsientosDiscapacitados&amp;nbsp;" style="text;strokeColor=none;fillColor=none;align=left;verticalAlign=top;spacingLeft=4;spacingRight=4;overflow=hidden;rotatable=0;points=[[0,0.5],[1,0.5]];portConstraint=eastwest;whiteSpace=wrap;html=1;" vertex="1" parent="4n3oNLVav8jxbAVVkfyJ-52">
          <mxGeometry y="94" width="360" height="34" as="geometry" />
        </mxCell>
        <mxCell id="4n3oNLVav8jxbAVVkfyJ-60" value="Metodo NumerosAsientosNoDiscapacitados" style="text;strokeColor=none;fillColor=none;align=left;verticalAlign=top;spacingLeft=4;spacingRight=4;overflow=hidden;rotatable=0;points=[[0,0.5],[1,0.5]];portConstraint=eastwest;whiteSpace=wrap;html=1;" vertex="1" parent="4n3oNLVav8jxbAVVkfyJ-52">
          <mxGeometry y="128" width="360" height="34" as="geometry" />
        </mxCell>
        <mxCell id="4n3oNLVav8jxbAVVkfyJ-59" value="Atributo String nombreEmpresa.&amp;nbsp;" style="text;strokeColor=none;fillColor=none;align=left;verticalAlign=top;spacingLeft=4;spacingRight=4;overflow=hidden;rotatable=0;points=[[0,0.5],[1,0.5]];portConstraint=eastwest;whiteSpace=wrap;html=1;" vertex="1" parent="4n3oNLVav8jxbAVVkfyJ-52">
          <mxGeometry y="162" width="360" height="34" as="geometry" />
        </mxCell>
        <mxCell id="4n3oNLVav8jxbAVVkfyJ-61" value="Atributo double costoKilometraje = 100" style="text;strokeColor=none;fillColor=none;align=left;verticalAlign=top;spacingLeft=4;spacingRight=4;overflow=hidden;rotatable=0;points=[[0,0.5],[1,0.5]];portConstraint=eastwest;whiteSpace=wrap;html=1;" vertex="1" parent="4n3oNLVav8jxbAVVkfyJ-52">
          <mxGeometry y="196" width="360" height="34" as="geometry" />
        </mxCell>
        <mxCell id="4n3oNLVav8jxbAVVkfyJ-62" value="Metodo Kilometraje.&amp;nbsp;" style="text;strokeColor=none;fillColor=none;align=left;verticalAlign=top;spacingLeft=4;spacingRight=4;overflow=hidden;rotatable=0;points=[[0,0.5],[1,0.5]];portConstraint=eastwest;whiteSpace=wrap;html=1;" vertex="1" parent="4n3oNLVav8jxbAVVkfyJ-52">
          <mxGeometry y="230" width="360" height="34" as="geometry" />
        </mxCell>
        <mxCell id="4n3oNLVav8jxbAVVkfyJ-63" value="Almacenador de informacion de pasajeros ( PREGUNTA)&amp;nbsp;" style="text;strokeColor=none;fillColor=none;align=left;verticalAlign=top;spacingLeft=4;spacingRight=4;overflow=hidden;rotatable=0;points=[[0,0.5],[1,0.5]];portConstraint=eastwest;whiteSpace=wrap;html=1;" vertex="1" parent="4n3oNLVav8jxbAVVkfyJ-52">
          <mxGeometry y="264" width="360" height="34" as="geometry" />
        </mxCell>
        <mxCell id="4n3oNLVav8jxbAVVkfyJ-82" value="&lt;span style=&quot;font-size: 24px;&quot;&gt;VisualizacionTren&lt;/span&gt;" style="swimlane;fontStyle=0;childLayout=stackLayout;horizontal=1;startSize=26;fillColor=none;horizontalStack=0;resizeParent=1;resizeParentMax=0;resizeLast=0;collapsible=1;marginBottom=0;html=1;" vertex="1" parent="1">
          <mxGeometry x="84" y="1428" width="360" height="94" as="geometry" />
        </mxCell>
        <mxCell id="4n3oNLVav8jxbAVVkfyJ-83" value="Metodo visualizarTren." style="text;strokeColor=none;fillColor=none;align=left;verticalAlign=top;spacingLeft=4;spacingRight=4;overflow=hidden;rotatable=0;points=[[0,0.5],[1,0.5]];portConstraint=eastwest;whiteSpace=wrap;html=1;" vertex="1" parent="4n3oNLVav8jxbAVVkfyJ-82">
          <mxGeometry y="26" width="360" height="34" as="geometry" />
        </mxCell>
        <mxCell id="4n3oNLVav8jxbAVVkfyJ-91" value="Metodo refrescarTren.&amp;nbsp;" style="text;strokeColor=none;fillColor=none;align=left;verticalAlign=top;spacingLeft=4;spacingRight=4;overflow=hidden;rotatable=0;points=[[0,0.5],[1,0.5]];portConstraint=eastwest;whiteSpace=wrap;html=1;" vertex="1" parent="4n3oNLVav8jxbAVVkfyJ-82">
          <mxGeometry y="60" width="360" height="34" as="geometry" />
        </mxCell>
      </root>
    </mxGraphModel>
  </diagram>
</mxfile>
